<svg xmlns="http://www.w3.org/2000/svg" viewBox="-143 81 30 30"><title>calendar</title><g fill="#959595"><path d="M-116 111h-24c-1.7 0-3-1.3-3-3V86c0-1.7 1.1-3 2.5-3h1.5v2h-1.5c-.2 0-.5.4-.5 1v22c0 .6.4 1 1 1h24c.6 0 1-.4 1-1V86c0-.6-.3-1-.5-1h-1.5v-2h1.5c1.4 0 2.5 1.3 2.5 3v22c0 1.7-1.3 3-3 3"/><path d="M-136 87c-.6 0-1-.4-1-1v-4c0-.6.4-1 1-1s1 .4 1 1v4c0 .6-.4 1-1 1M-120 87c-.6 0-1-.4-1-1v-4c0-.6.4-1 1-1s1 .4 1 1v4c0 .6-.4 1-1 1M-133 83h10v2h-10v-2zM-141 89h26v2h-26v-2zM-119 93h2v2h-2v-2zM-123 93h2v2h-2v-2zM-127 93h2v2h-2v-2zM-131 93h2v2h-2v-2zM-135 93h2v2h-2v-2zM-119 97h2v2h-2v-2zM-123 97h2v2h-2v-2zM-127 97h2v2h-2v-2zM-131 97h2v2h-2v-2zM-135 97h2v2h-2v-2zM-139 97h2v2h-2v-2zM-119 101h2v2h-2v-2zM-123 101h2v2h-2v-2zM-127 101h2v2h-2v-2zM-131 101h2v2h-2v-2zM-135 101h2v2h-2v-2zM-139 101h2v2h-2v-2zM-123 105h2v2h-2v-2zM-127 105h2v2h-2v-2zM-131 105h2v2h-2v-2zM-135 105h2v2h-2v-2zM-139 105h2v2h-2v-2z"/></g></svg>